<svg version="1.1" viewBox="0.0 0.0 799.6272965879265 678.5459317585302" fill="none" stroke="none" stroke-linecap="square" stroke-miterlimit="10" xmlns:xlink="http://www.w3.org/1999/xlink" xmlns="http://www.w3.org/2000/svg"><clipPath id="p.0"><path d="m0 0l799.6273 0l0 678.54596l-799.6273 0l0 -678.54596z" clip-rule="nonzero"/></clipPath><g clip-path="url(#p.0)"><path fill="#000000" fill-opacity="0.0" d="m0 0l799.6273 0l0 678.54596l-799.6273 0z" fill-rule="evenodd"/><path fill="#4a4a4a" d="m161.09167 652.23596l0 -131.65356c0 14.542053 110.31085 26.330688 246.38617 26.330688c136.07538 0 246.38623 -11.788635 246.38623 -26.330688l0 131.65356l0 0c0 14.542053 -110.31085 26.330688 -246.38623 26.330688c-136.07532 0 -246.38617 -11.788635 -246.38617 -26.330688z" fill-rule="evenodd"/><path fill="#4a4a4a" d="m-0.002619605 238.07184l0 0c0 -99.654465 89.49826 -180.44037 199.89996 -180.44037l0 0c110.4017 0 199.89996 80.785904 199.89996 180.44037l0 0c0 99.65448 -89.49826 180.44037 -199.89996 180.44037l0 0c-110.401695 0 -199.89996 -80.78589 -199.89996 -180.44037z" fill-rule="evenodd"/><path fill="#4a4a4a" d="m207.57733 180.42986l0 0c0 -99.654465 89.49826 -180.44037 199.89996 -180.44037l0 0c110.40167 0 199.89996 80.78591 199.89996 180.44037l0 0c0 99.654465 -89.49829 180.44038 -199.89996 180.44038l0 0c-110.4017 0 -199.89996 -80.78592 -199.89996 -180.44038z" fill-rule="evenodd"/><path fill="#4a4a4a" d="m399.7973 238.07184l0 0c0 -99.654465 89.49826 -180.44037 199.89996 -180.44037l0 0c110.40167 0 199.89996 80.785904 199.89996 180.44037l0 0c0 99.65448 -89.49829 180.44037 -199.89996 180.44037l0 0c-110.4017 0 -199.89996 -80.78589 -199.89996 -180.44037z" fill-rule="evenodd"/><path fill="#4a4a4a" d="m161.78098 342.56516l0 0c0 -15.908051 110.00223 -28.804047 245.69687 -28.804047c135.69464 0 245.6969 12.895996 245.6969 28.804047l0 115.21622c0 15.90802 -110.00226 28.804047 -245.6969 28.804047c-135.69464 0 -245.69687 -12.896027 -245.69687 -28.804047z" fill-rule="evenodd"/><path fill="#000000" fill-opacity="0.0" d="m653.17474 342.56516l0 0c0 15.908051 -110.00226 28.804047 -245.6969 28.804047c-135.69464 0 -245.69687 -12.895996 -245.69687 -28.804047" fill-rule="evenodd"/><path fill="#000000" fill-opacity="0.0" d="m161.78098 342.56516l0 0c0 -15.908051 110.00223 -28.804047 245.69687 -28.804047c135.69464 0 245.6969 12.895996 245.6969 28.804047l0 115.21622c0 15.90802 -110.00226 28.804047 -245.6969 28.804047c-135.69464 0 -245.69687 -12.896027 -245.69687 -28.804047z" fill-rule="evenodd"/></g></svg>